<svg fill="none" height="24" viewBox="0 0 24 24" width="24" xmlns="http://www.w3.org/2000/svg"><g fill="#2d264b"><path clip-rule="evenodd" d="m7.5 4.13266c-1.04142.12348-1.80531.3619-2.43893.82226-.42447.30839-.79776.68168-1.10616 1.10615-.95491 1.31433-.95491 3.1892-.95491 6.93893 0 3.7497 0 5.6246.95491 6.9389.3084.4245.68169.7978 1.10616 1.1062 1.31433.9549 3.1892.9549 6.93893.9549.8389 0 1.584 0 2.25-.0107v-.0701c-.0001-.852-.0001-1.371.0708-1.8187.3897-2.4604 2.3193-4.39 4.7797-4.7797.4477-.0709.9667-.0709 1.8187-.0708h.0701c.0107-.6658.0107-1.4108.0107-2.2495 0-3.74977 0-5.6251-.9549-6.93943-.3084-.42447-.6817-.79776-1.1062-1.10615-.6336-.46035-1.3975-.69878-2.4389-.82226v.86734c0 .82843-.6716 1.5-1.5 1.5s-1.5-.67157-1.5-1.5v-.99719c-.4641-.00281-.9628-.00281-1.5-.00281s-1.0359 0-1.5.00281v.99719c0 .82843-.67157 1.5-1.5 1.5s-1.5-.67157-1.5-1.5zm-.5 5.86734c.55228 0 1-.44772 1-1s-.44772-1-1-1-1 .44772-1 1 .44772 1 1 1zm1 3c0 .5523-.44772 1-1 1s-1-.4477-1-1 .44772-1 1-1 1 .4477 1 1zm4-3c.5523 0 1-.44772 1-1s-.4477-1-1-1-1 .44772-1 1 .4477 1 1 1zm1 3c0 .5523-.4477 1-1 1s-1-.4477-1-1 .4477-1 1-1 1 .4477 1 1zm-1 5c.5523 0 1-.4477 1-1s-.4477-1-1-1-1 .4477-1 1 .4477 1 1 1zm6-9c0 .55228-.4477 1-1 1s-1-.44772-1-1 .4477-1 1-1 1 .44772 1 1zm-1 5c.5523 0 1-.4477 1-1s-.4477-1-1-1-1 .4477-1 1 .4477 1 1 1zm-9 3c0 .5523-.44772 1-1 1s-1-.4477-1-1 .44772-1 1-1 1 .4477 1 1z" fill-rule="evenodd"/><path d="m20.9347 16.75c-.9104.0001-1.2912.0035-1.5995.0523-1.8186.2881-3.2448 1.7143-3.5329 3.5329-.0488.3083-.0522.6891-.0523 1.5995 1.4396-.0944 2.4122-.3253 3.1889-.8896.4245-.3084.7978-.6817 1.1062-1.1062.5643-.7767.7952-1.7493.8896-3.1889z"/><path d="m9.75 2c0-.41421-.33579-.75-.75-.75s-.75.33579-.75.75v3c0 .41421.33579.75.75.75s.75-.33579.75-.75z"/><path d="m15.75 2c0-.41421-.3358-.75-.75-.75s-.75.33579-.75.75v3c0 .41421.3358.75.75.75s.75-.33579.75-.75z"/></g></svg>